<?xml version="1.0" standalone="no"?>
<!DOCTYPE svg PUBLIC "-//W3C//DTD SVG 20010904//EN"
 "http://www.w3.org/TR/2001/REC-SVG-20010904/DTD/svg10.dtd">
<svg version="1.0" xmlns="http://www.w3.org/2000/svg"
 width="1024.000000pt" height="1024.000000pt" viewBox="0 0 1024.000000 1024.000000"
 preserveAspectRatio="xMidYMid meet">
<metadata>
Created by potrace 1.14, written by Peter Selinger 2001-2017
</metadata>
<g transform="translate(0.000000,1024.000000) scale(0.100000,-0.100000)"
fill="#000000" stroke="none">
<path d="M3794 9635 c-58 -13 -193 -65 -264 -102 -36 -19 -55 -31 -150 -92
-52 -33 -209 -144 -247 -175 -65 -52 -273 -225 -298 -247 -81 -73 -166 -151
-239 -221 -80 -75 -81 -76 -108 -62 -41 21 -106 25 -146 9 -34 -15 -34 -15
-85 30 -81 70 -184 120 -297 141 -92 17 -163 -5 -208 -64 -25 -32 -27 -43 -33
-181 -6 -146 -11 -169 -51 -249 -21 -41 -23 -42 -36 -25 -8 10 -30 52 -49 93
-92 197 -91 195 -131 218 -87 49 -203 13 -238 -73 -18 -44 -19 -50 -28 -115
-3 -25 -8 -56 -11 -70 -3 -14 -7 -43 -10 -65 -3 -22 -7 -47 -10 -55 -2 -8 -7
-33 -10 -55 -3 -23 -7 -50 -9 -60 -2 -11 -7 -40 -10 -65 -3 -25 -8 -54 -10
-66 -2 -12 -7 -45 -11 -75 -3 -30 -8 -61 -10 -69 -2 -8 -7 -39 -10 -69 -4 -30
-8 -62 -10 -71 -2 -9 -6 -41 -10 -70 -4 -29 -8 -60 -10 -69 -1 -9 -6 -43 -9
-76 -4 -33 -9 -71 -11 -85 -2 -14 -6 -47 -9 -75 -15 -127 -18 -152 -21 -175
-2 -14 -9 -70 -15 -125 -6 -55 -12 -113 -14 -130 -3 -16 -7 -70 -11 -120 -4
-49 -8 -97 -10 -105 -2 -8 -6 -58 -9 -110 -4 -52 -9 -111 -11 -130 -2 -19 -7
-80 -10 -135 -4 -55 -8 -120 -10 -145 -26 -318 -27 -1209 0 -1395 2 -16 6 -54
10 -83 14 -133 121 -251 390 -429 156 -103 328 -200 600 -338 226 -114 330
-163 620 -295 229 -104 679 -295 1050 -444 160 -65 299 -121 310 -126 11 -5
45 -19 75 -30 30 -11 64 -24 75 -29 94 -42 139 -53 185 -49 114 11 181 125
137 231 -17 38 -44 63 -382 338 -143 117 -274 224 -291 238 -17 14 -51 42 -74
61 -24 19 -74 60 -110 90 -37 30 -86 71 -110 90 -24 19 -127 104 -229 188
-102 84 -260 213 -351 286 -215 174 -283 248 -357 391 -84 163 -106 271 -119
585 -16 413 -3 711 40 885 2 6 6 28 10 50 5 22 14 63 21 90 8 28 19 68 24 90
l10 40 118 0 c126 0 188 6 268 25 28 6 61 14 74 16 13 3 27 6 31 7 8 2 38 -28
298 -301 l146 -152 36 -108 c64 -189 116 -277 226 -382 118 -112 246 -190 394
-240 l75 -25 8 -49 c4 -27 14 -58 22 -69 22 -31 303 -315 329 -332 12 -8 37
-17 55 -19 24 -3 47 -19 93 -67 33 -35 141 -147 238 -249 98 -102 206 -214
240 -250 74 -78 402 -420 551 -575 145 -150 305 -317 359 -374 43 -45 325
-339 480 -501 148 -155 397 -414 450 -470 55 -57 364 -380 450 -469 64 -67
394 -411 480 -501 40 -41 149 -155 243 -254 259 -268 250 -257 271 -334 46
-165 77 -194 236 -217 37 -6 139 -24 190 -35 25 -5 61 -12 80 -14 19 -3 103
-18 187 -34 84 -16 168 -28 186 -26 87 5 157 78 157 161 0 24 -32 132 -81 274
-44 129 -95 275 -112 324 -37 108 -58 131 -187 207 -99 58 -146 104 -956 934
-66 67 -282 288 -480 490 -199 203 -412 421 -474 484 -62 63 -220 225 -352
360 -581 592 -703 717 -863 886 -93 98 -206 217 -251 264 -45 47 -109 114
-143 150 -34 36 -117 123 -184 194 -67 71 -136 144 -154 162 -28 29 -32 39
-31 86 1 32 -5 66 -15 85 -10 18 -84 88 -166 155 -212 176 -220 182 -261 196
-26 9 -66 43 -128 110 -50 53 -123 131 -164 173 -100 104 -341 358 -426 448
-44 46 -74 88 -83 115 -13 40 -53 127 -107 233 -84 165 -259 306 -426 345 -53
12 -62 19 -159 121 -56 60 -104 113 -105 118 -2 5 3 20 11 33 22 33 45 118 42
152 -4 48 -22 102 -44 132 l-20 29 70 129 c175 321 441 672 748 986 80 82 154
164 164 181 26 45 19 131 -13 174 -46 64 -149 85 -276 58z"/>
</g>
</svg>
